<svg xmlns="http://www.w3.org/2000/svg" x="0px" y="0px"
width="64" height="64"
viewBox="0 0 172 172"
style=" fill:#000000;"><g fill="none" fill-rule="nonzero" stroke="none" stroke-width="1" stroke-linecap="butt" stroke-linejoin="miter" stroke-miterlimit="10" stroke-dasharray="" stroke-dashoffset="0" font-family="none" font-weight="none" font-size="none" text-anchor="none" style="mix-blend-mode: normal"><path d="M0,172v-172h172v172z" fill="none"></path><g><path d="M14.59581,67.1875h45.11506c2.74996,0.00204 5.17058,-1.81288 5.93937,-4.45319l14.41038,-49.41237c0.76296,-2.64659 3.185,-4.46904 5.93937,-4.46904c2.75437,0 5.17641,1.82244 5.93937,4.46904l14.41038,49.41238c0.76879,2.64031 3.18942,4.45523 5.93937,4.45319h45.11506c2.75935,-0.00984 5.19101,1.81044 5.95903,4.46077c0.76802,2.65033 -0.31364,5.48871 -2.65072,6.95573l-36.55,23.07488c-2.43069,1.53408 -3.48319,4.54121 -2.53969,7.25625l16.24594,46.64963c0.90712,2.59186 -0.00441,5.47142 -2.23776,7.06916c-2.23335,1.59773 -5.25299,1.53054 -7.41305,-0.16497l-38.40706,-30.01938c-2.2383,-1.75269 -5.38345,-1.75269 -7.62175,0l-38.38288,30.01937c-2.15855,1.71858 -5.19471,1.79845 -7.44063,0.19573c-2.24592,-1.60271 -3.15766,-4.49985 -2.23437,-7.09992l16.22444,-46.64425c0.9435,-2.71504 -0.109,-5.72217 -2.53969,-7.25625l-36.5285,-23.08025c-2.33708,-1.46702 -3.41874,-4.3054 -2.65072,-6.95573c0.76802,-2.65033 3.19969,-4.47061 5.95903,-4.46077z" fill="#f8cf26"></path><path d="M56.4375,59.125c-0.71271,-0.00015 -1.39618,-0.2834 -1.90006,-0.78744l-13.4375,-13.4375c-1.01849,-1.05452 -1.00392,-2.73073 0.03274,-3.76739c1.03666,-1.03666 2.71287,-1.05123 3.76739,-0.03274l13.4375,13.4375c0.76838,0.76861 0.9982,1.92435 0.58232,2.92845c-0.41587,1.0041 -1.39557,1.65888 -2.48238,1.65912z" fill="#f29200"></path><path d="M115.5625,59.125c-1.08681,-0.00023 -2.06651,-0.65502 -2.48238,-1.65912c-0.41587,-1.0041 -0.18606,-2.15984 0.58232,-2.92845l13.4375,-13.4375c1.05452,-1.01849 2.73073,-1.00392 3.76739,0.03274c1.03666,1.03666 1.05123,2.71287 0.03274,3.76739l-13.4375,13.4375c-0.50389,0.50404 -1.18735,0.78729 -1.90006,0.78744z" fill="#f29200"></path><path d="M86,161.25c-1.48427,0 -2.6875,-1.20323 -2.6875,-2.6875v-16.125c0,-1.48427 1.20323,-2.6875 2.6875,-2.6875c1.48427,0 2.6875,1.20323 2.6875,2.6875v16.125c0,1.48427 -1.20323,2.6875 -2.6875,2.6875z" fill="#f29200"></path></g></g></svg>