<svg xmlns="http://www.w3.org/2000/svg" x="0px" y="0px"
width="32" height="32"
viewBox="0 0 172 172"
style=" fill:#000000;"><g fill="none" fill-rule="nonzero" stroke="none" stroke-width="1" stroke-linecap="butt" stroke-linejoin="miter" stroke-miterlimit="10" stroke-dasharray="" stroke-dashoffset="0" font-family="none" font-weight="none" font-size="none" text-anchor="none" style="mix-blend-mode: normal"><path d="M0,172v-172h172v172z" fill="none"></path><g fill="#666666"><path d="M161.25,64.12913h-53.61563l-16.5335,-49.69725c-0.731,-2.20375 -2.78425,-3.68187 -5.10087,-3.68187c-2.31663,0 -4.36988,1.47813 -5.10088,3.68188l-16.5335,49.69725h-53.61562c-2.3435,0 -4.4075,1.51038 -5.12237,3.741c-0.7095,2.23063 0.1075,4.66012 2.01025,6.01462l43.26337,30.69125l-16.50662,49.60588c-0.731,2.20375 0.03762,4.62788 1.90275,6.01462c1.85975,1.38138 4.41287,1.40825 6.30488,0.0645l43.39775,-30.788l43.39775,30.788c0.92988,0.65575 2.021,0.989 3.10675,0.989c1.12338,0 2.25213,-0.34938 3.19813,-1.0535c1.8705,-1.38675 2.63375,-3.81087 1.90275,-6.01462l-16.50662,-49.60587l43.26338,-30.69125c1.90275,-1.3545 2.71975,-3.784 2.01025,-6.01463c-0.71487,-2.23062 -2.77887,-3.741 -5.12237,-3.741zM111.63337,98.11525c-1.92425,1.37063 -2.73587,3.83775 -1.98875,6.07913l12.5775,37.79162l-33.11,-23.48337c-0.92987,-0.66113 -2.01562,-0.99438 -3.10675,-0.99438c-1.09112,0 -2.17687,0.33325 -3.10675,0.99438l-33.11,23.48337l12.5775,-37.79162c0.74712,-2.24138 -0.0645,-4.7085 -1.98875,-6.07913l-32.75525,-23.23612h40.62425c2.31662,0 4.36987,-1.47813 5.10087,-3.68188l12.65275,-38.04962l12.65812,38.04963c0.73638,2.19837 2.78963,3.68188 5.10088,3.68188h40.62425z"></path></g></g></svg>